<svg width="149" height="28" viewBox="0 0 149 28" fill="none" xmlns="http://www.w3.org/2000/svg">
<path d="M0 0.674114H5.11532V22.6186H12.5689V27.4859H0V0.674114Z" fill="white"/>
<path d="M29.9026 15.0911C29.5735 13.9854 28.9236 13.0866 27.9536 12.394C26.9835 11.7021 25.858 11.355 24.5769 11.355C23.1869 11.355 21.9659 11.7441 20.9177 12.5214C20.2588 13.0079 19.6487 13.864 19.0874 15.0911H29.9026ZM34.8902 19.0109H18.868C19.0994 20.4195 19.7178 21.5409 20.7224 22.373C21.727 23.2051 23.0088 23.6219 24.5679 23.6219C26.4313 23.6219 28.0332 22.9719 29.3729 21.6713L33.5746 23.6398C32.5271 25.1226 31.2731 26.2193 29.8109 26.9299C28.3495 27.6406 26.6146 27.9959 24.6047 27.9959C21.4865 27.9959 18.9469 27.0147 16.9866 25.0521C15.0255 23.0904 14.045 20.6323 14.045 17.6796C14.045 14.6541 15.0225 12.1421 16.9768 10.1421C18.9319 8.14361 21.3828 7.14436 24.3305 7.14436C27.4607 7.14436 30.0063 8.14361 31.9674 10.1421C33.9277 12.1421 34.9082 14.7815 34.9082 18.0626L34.8902 19.0109Z" fill="white"/>
<path d="M47.4193 11.7384C45.8767 11.7384 44.5971 12.2818 43.5775 13.3695C42.5572 14.4572 42.0485 15.8508 42.0485 17.5524C42.0485 19.2653 42.5662 20.6754 43.6053 21.7803C44.643 22.8868 45.9195 23.4392 47.4365 23.4392C49.0024 23.4392 50.3015 22.8958 51.3331 21.8081C52.3648 20.7204 52.8817 19.2961 52.8817 17.5337C52.8817 15.8088 52.3648 14.4108 51.3331 13.3418C50.3015 12.2728 48.9971 11.7384 47.4193 11.7384ZM52.6631 7.65516H57.6491V27.4857H52.6631V25.3898C51.6885 26.3126 50.7125 26.9782 49.7335 27.3853C48.7544 27.7923 47.692 27.9962 46.5492 27.9962C43.9825 27.9962 41.7622 27.0022 39.889 25.0157C38.0151 23.0292 37.0789 20.5599 37.0789 17.6064C37.0789 14.545 37.9851 12.0352 39.7974 10.0794C41.6112 8.12367 43.8119 7.14466 46.4034 7.14466C47.5951 7.14466 48.7154 7.36955 49.7598 7.81857C50.8064 8.26835 51.7734 8.94301 52.6631 9.84256V7.65516Z" fill="white"/>
<path d="M70.2485 11.7384C68.7059 11.7384 67.4256 12.2818 66.4067 13.3695C65.3864 14.4573 64.8769 15.8508 64.8769 17.5524C64.8769 19.2653 65.3954 20.6754 66.4338 21.7803C67.4714 22.8868 68.7487 23.4392 70.2657 23.4392C71.8316 23.4392 73.1307 22.8958 74.1623 21.8081C75.194 20.7204 75.7109 19.2961 75.7109 17.5337C75.7109 15.8088 75.194 14.4108 74.1623 13.3418C73.1307 12.2728 71.8263 11.7384 70.2485 11.7384ZM75.4915 -5.72205e-06H80.4784V27.4857H75.4915V25.3898C74.5177 26.3126 73.5417 26.9782 72.5619 27.3853C71.5829 27.7923 70.5212 27.9962 69.3784 27.9962C66.8117 27.9962 64.5914 27.0022 62.7182 25.0157C60.8436 23.0292 59.9074 20.5599 59.9074 17.6064C59.9074 14.545 60.8135 12.0352 62.6266 10.0794C64.4396 8.12367 66.6404 7.14466 69.2319 7.14466C70.4243 7.14466 71.5438 7.36955 72.589 7.81858C73.6356 8.26835 74.6026 8.94301 75.4915 9.84256V-5.72205e-06Z" fill="white"/>
<path d="M95.3094 25.5354C96.731 25.5354 98.0436 25.1861 99.2458 24.4874C100.449 23.7888 101.406 22.8075 102.117 21.5436C102.828 20.2798 103.183 18.9432 103.183 17.5339C103.183 16.1246 102.825 14.7813 102.108 13.5054C101.391 12.2303 100.428 11.2363 99.2187 10.5264C98.0098 9.81428 96.7189 9.4597 95.3462 9.4597C93.9479 9.4597 92.621 9.81428 91.3632 10.5264C90.1054 11.2363 89.1391 12.1936 88.4659 13.3967C87.7904 14.5991 87.4538 15.9544 87.4538 17.4612C87.4538 19.7573 88.2097 21.6778 89.7222 23.2206C91.2355 24.764 93.0981 25.5354 95.3094 25.5354ZM85.0787 27.4859V0.000188828H87.6364V11.0631C88.7071 9.75131 89.9055 8.77005 91.2317 8.12012C92.5579 7.4702 94.011 7.14486 95.5934 7.14486C98.4043 7.14486 100.804 8.16285 102.793 10.1981C104.783 12.2333 105.777 14.7033 105.777 17.6066C105.777 20.4747 104.774 22.923 102.766 24.9522C100.758 26.9814 98.3434 27.9957 95.5205 27.9957C93.9021 27.9957 92.4361 27.6493 91.1227 26.9567C89.8086 26.2648 88.6462 25.2258 87.6364 23.8397V27.4859H85.0787Z" fill="#F2F2F2"/>
<path d="M118.9 9.64177C116.773 9.64177 114.945 10.4251 113.418 11.9933C111.89 13.5608 111.126 15.4559 111.126 17.68C111.126 19.1133 111.475 20.4506 112.171 21.689C112.868 22.9296 113.809 23.8861 114.995 24.56C116.181 25.2347 117.482 25.572 118.9 25.572C120.318 25.572 121.619 25.2347 122.805 24.56C123.99 23.8861 124.931 22.9296 125.628 21.689C126.325 20.4506 126.673 19.1133 126.673 17.68C126.673 15.4559 125.906 13.5608 124.372 11.9933C122.838 10.4251 121.014 9.64177 118.9 9.64177ZM118.909 7.14477C121.971 7.14477 124.509 8.25122 126.522 10.4619C128.352 12.4791 129.268 14.8674 129.268 17.6253C129.268 20.3951 128.3 22.8164 126.367 24.8884C124.433 26.9603 121.947 27.9956 118.909 27.9956C115.858 27.9956 113.367 26.9603 111.433 24.8884C109.499 22.8164 108.532 20.3951 108.532 17.6253C108.532 14.8786 109.447 12.4978 111.277 10.4806C113.29 8.25647 115.834 7.14477 118.909 7.14477Z" fill="#F2F2F2"/>
<path d="M130.798 7.65497H133.868L139.154 14.9098L144.385 7.65497H147.46L140.694 17.023L148.318 27.4855H145.203L139.153 19.1572L133.138 27.4855H130.086L137.616 17.041L130.798 7.65497Z" fill="#F2F2F2"/>
</svg>
